<?xml version="1.0" standalone="no"?>
<!DOCTYPE svg PUBLIC "-//W3C//DTD SVG 20010904//EN"
 "http://www.w3.org/TR/2001/REC-SVG-20010904/DTD/svg10.dtd">
<svg version="1.0" xmlns="http://www.w3.org/2000/svg"
 width="512.000000pt" height="512.000000pt" viewBox="0 0 512.000000 512.000000"
 preserveAspectRatio="xMidYMid meet">
<metadata>
Created by potrace 1.11, written by Peter Selinger 2001-2013
</metadata>
<g transform="translate(0.000000,512.000000) scale(0.100000,-0.100000)"
fill="#000000" stroke="none">
<path d="M0 2560 l0 -2560 2560 0 2560 0 0 2560 0 2560 -2560 0 -2560 0 0
-2560z m3160 2035 c539 -78 991 -337 1245 -715 47 -70 117 -192 113 -195 -17
-10 -720 -415 -723 -415 -2 0 -24 30 -50 66 -182 255 -440 415 -759 470 -111
20 -382 14 -491 -11 -320 -71 -590 -257 -754 -520 -126 -201 -181 -415 -181
-705 0 -172 16 -302 54 -430 122 -419 470 -727 911 -807 114 -21 371 -23 475
-4 167 30 347 105 478 198 87 62 207 184 266 271 l48 70 147 -85 c80 -47 244
-142 364 -211 l217 -125 -31 -56 c-124 -220 -323 -431 -539 -571 -154 -99
-394 -200 -590 -249 -286 -70 -707 -81 -1027 -26 -679 117 -1232 511 -1519
1083 -93 188 -153 377 -190 607 -23 138 -26 494 -6 630 68 448 235 799 528
1104 361 376 838 591 1434 645 99 9 470 -3 580 -19z"/>
</g>
</svg>
