<?xml version="1.0" encoding="UTF-8"?>
<svg width="178px" height="35px" viewBox="0 0 178 35" version="1.1" xmlns="http://www.w3.org/2000/svg" xmlns:xlink="http://www.w3.org/1999/xlink">
    <!-- Generator: Sketch 50.2 (55047) - http://www.bohemiancoding.com/sketch -->
    <title>Group</title>
    <desc>Created with Sketch.</desc>
    <defs></defs>
    <g id="Page-1" stroke="none" stroke-width="1" fill="none" fill-rule="evenodd">
        <g id="Group" fill="#FFFFFF">
            <path d="M18.496,34.5999985 C14.954649,34.5999985 11.7760141,33.8620412 8.96,32.3861046 C6.14398592,30.910168 3.94667456,28.8544299 2.368,26.2188288 C0.78932544,23.5832277 0,20.599772 0,17.2683722 C0,13.9369724 0.78932544,10.9640589 2.368,8.34954259 C3.94667456,5.73502628 6.13331936,3.6898305 8.928,2.21389387 C11.7226806,0.737957244 14.9119821,0 18.496,0 C21.8666835,0 24.8213206,0.674703765 27.36,2.02413154 C29.8986794,3.37355931 31.8079936,5.31333264 33.088,7.84350971 L26.944,11.3857399 C25.9626618,9.82546404 24.7360074,8.6552747 23.264,7.87513676 C21.7919926,7.09499883 20.1813421,6.70493572 18.432,6.70493572 C15.4453184,6.70493572 12.9706765,7.66428014 11.008,9.58299775 C9.04532352,11.5017154 8.064,14.0634812 8.064,17.2683722 C8.064,20.4732631 9.03465696,23.035029 10.976,24.9537466 C12.917343,26.8724642 15.4026515,27.8318086 18.432,27.8318086 C20.1813421,27.8318086 21.7919926,27.4417455 23.264,26.6616076 C24.7360074,25.8814697 25.9626618,24.7112803 26.944,23.1510045 L33.088,26.6932347 C31.7653267,29.2234117 29.8346794,31.1737273 27.296,32.5442399 C24.7573206,33.9147525 21.8240166,34.5999985 18.496,34.5999985 Z" id="Path"></path>
            <path d="M71.224,0 L71.224,34.1572197 L63.608,34.1572197 L63.608,29.7926861 C62.2853267,31.3951316 60.653343,32.5969476 58.712,33.3981704 C56.770657,34.1993931 54.6266784,34.5999985 52.28,34.5999985 C48.9519834,34.5999985 45.9760131,33.8831257 43.352,32.4493587 C40.7279869,31.0155917 38.6800074,28.9914804 37.208,26.3769641 C35.7359926,23.7624478 35,20.7262808 35,17.2683722 C35,13.8104635 35.7359926,10.7848388 37.208,8.19140732 C38.6800074,5.59797582 40.7279869,3.58440677 43.352,2.15063976 C45.9760131,0.716872751 48.9519834,0 52.28,0 C54.4986778,0 56.5359907,0.379520868 58.392,1.13857399 C60.2480093,1.89762711 61.8586598,3.01510522 63.224,4.49104185 L63.224,0 L71.224,0 Z M53.1106218,28.0452913 C56.0546365,28.0452913 58.4866122,27.0754046 60.4066218,25.1356022 C62.3266314,23.1957998 63.2866218,20.6445761 63.2866218,17.4818548 C63.2866218,14.3191335 62.3266314,11.7679099 60.4066218,9.82810743 C58.4866122,7.888305 56.0546365,6.91841834 53.1106218,6.91841834 C50.1666071,6.91841834 47.745298,7.888305 45.8466218,9.82810743 C43.9479456,11.7679099 42.9986218,14.3191335 42.9986218,17.4818548 C42.9986218,20.6445761 43.9479456,23.1957998 45.8466218,25.1356022 C47.745298,27.0754046 50.1666071,28.0452913 53.1106218,28.0452913 Z" id="Combined-Shape"></path>
            <path d="M82.616,4.99674972 C84.9200115,1.40932173 88.1963936,0 93.9990893,0 L97.1760316,7.07406646 C96.4933616,6.94594403 93.5005794,6.71510995 92.94591,6.71510995 C91.6620835,6.71510995 90.2542957,7.07776375 89.2024434,7.3861352 C87.7024044,7.82590153 86.6522889,8.70236296 85.624,9.76928632 C83.8746579,11.5843541 83,14.2001477 83,17.6167458 L83,34.5999985 L75,34.5999985 L75,0 L82.616,0 L82.616,4.99674972 Z" id="Path"></path>
            <path d="M160.040001,34.6023007 C156.819142,34.6023007 153.913883,33.8623847 151.324138,32.3825305 C148.734393,30.9026763 146.699624,28.846145 145.21977,26.212875 C143.739916,23.579605 143,20.6090598 143,17.3011504 C143,13.9932409 143.739916,11.0226958 145.21977,8.38942574 C146.699624,5.75615573 148.734393,3.69962446 151.324138,2.21977023 C153.913883,0.739916012 156.819142,0 160.040001,0 C163.26086,0 166.166119,0.739916012 168.755863,2.21977023 C171.345608,3.69962446 173.380377,5.75615573 174.860232,8.38942574 C176.340086,11.0226958 177.080002,13.9932409 177.080002,17.3011504 C177.080002,20.6090598 176.340086,23.579605 174.860232,26.212875 C173.380377,28.846145 171.345608,30.9026763 168.755863,32.3825305 C166.166119,33.8623847 163.26086,34.6023007 160.040001,34.6023007 Z M160.040001,31.6643695 C162.651508,31.6643695 164.990949,31.0550269 167.058392,29.8363234 C169.125835,28.61762 170.758003,26.9201656 171.954944,24.7439094 C173.151885,22.5676532 173.750346,20.0867583 173.750346,17.3011504 C173.750346,14.5155424 173.151885,12.0346475 171.954944,9.85839133 C170.758003,7.68213513 169.125835,5.98468074 167.058392,4.76597727 C164.990949,3.54727379 162.651508,2.93793119 160.040001,2.93793119 C157.428493,2.93793119 155.089053,3.54727379 153.02161,4.76597727 C150.954166,5.98468074 149.321999,7.68213513 148.125058,9.85839133 C146.928117,12.0346475 146.329655,14.5155424 146.329655,17.3011504 C146.329655,20.0867583 146.928117,22.5676532 148.125058,24.7439094 C149.321999,26.9201656 150.954166,28.61762 153.02161,29.8363234 C155.089053,31.0550269 157.428493,31.6643695 160.040001,31.6643695 Z" id="o"></path>
            <polygon id="i" points="136 0 139.314176 0 139.314176 34.5999985 136 34.5999985"></polygon>
            <polygon id="v" points="132.599998 0 116.957087 34.5999985 113.576628 34.5999985 98 0 101.513027 0 115.299999 30.9544048 129.219539 0"></polygon>
        </g>
    </g>
</svg>